<?xml version="1.0" standalone="no"?>
<!DOCTYPE svg PUBLIC "-//W3C//DTD SVG 20010904//EN"
 "http://www.w3.org/TR/2001/REC-SVG-20010904/DTD/svg10.dtd">
<svg version="1.0" xmlns="http://www.w3.org/2000/svg"
 width="512.000000pt" height="512.000000pt" viewBox="0 0 512.000000 512.000000"
 preserveAspectRatio="xMidYMid meet">

<g transform="translate(0.000000,512.000000) scale(0.100000,-0.100000)"
fill="#000000" stroke="none">
<path d="M804 3590 c-19 -6 -74 -55 -145 -127 -137 -141 -215 -235 -312 -380
-392 -580 -452 -1076 -165 -1349 113 -107 239 -164 435 -199 158 -27 297 -13
511 51 151 46 65 9 2111 902 1276 557 1812 795 1832 815 62 62 62 153 0 220
-69 73 -8 85 -1211 -232 -586 -154 -1373 -366 -1750 -471 -815 -228 -835 -233
-965 -234 -112 -1 -163 16 -224 76 -64 62 -76 100 -75 228 0 102 4 125 31 205
17 50 56 141 87 204 31 63 56 126 56 140 -1 41 -35 106 -68 130 -35 25 -103
34 -148 21z m-248 -935 c23 -75 100 -191 162 -243 66 -56 165 -107 247 -128
99 -25 279 -23 410 5 55 11 431 113 835 226 404 113 740 205 745 205 13 0
-1651 -729 -1781 -780 -126 -49 -278 -89 -369 -97 -135 -11 -313 40 -395 114
-68 61 -85 111 -84 238 2 131 33 233 126 425 62 128 71 142 78 120 5 -14 16
-52 26 -85z"/>
</g>
</svg>
